# Blender v2.72 (sub 0) OBJ File: ''
# www.blender.org
v 0.080641 -0.172558 -0.078140
v 3.385628 -0.172558 -3.304128
v 2.692766 -0.172558 -3.886911
v 1.899520 -0.172558 -4.323329
v 1.036374 -0.172558 -4.596603
v 0.136503 -0.172558 -4.696237
v -0.765517 -0.172558 -4.618401
v -1.635019 -0.172558 -4.366084
v -2.438591 -0.172558 -3.948981
v -3.145347 -0.172558 -3.383126
v -3.728133 -0.172558 -2.690260
v -4.164547 -0.172558 -1.897018
v -4.437822 -0.172558 -1.033872
v -4.537457 -0.172558 -0.133999
v -4.459619 -0.172558 0.768020
v -4.207301 -0.172558 1.637523
v -3.790201 -0.172558 2.441094
v -3.224345 -0.172558 3.147850
v -2.531481 -0.172558 3.730634
v -1.738235 -0.172558 4.167050
v -0.875090 -0.172558 4.440323
v 0.024783 -0.172558 4.539956
v 0.926801 -0.172558 4.462122
v 1.796304 -0.172558 4.209803
v 2.599874 -0.172558 3.792701
v 3.306631 -0.172558 3.226850
v 3.889417 -0.172558 2.533984
v 4.325835 -0.172558 1.740736
v 4.599106 -0.172558 0.877594
v 4.698739 -0.172558 -0.022281
v 4.620902 -0.172558 -0.924300
v 4.368584 -0.172558 -1.793804
v 3.951482 -0.172558 -2.597371
v 3.385630 0.155339 -3.304129
v 2.692768 0.155339 -3.886911
v 1.899521 0.155339 -4.323329
v 1.036374 0.155339 -4.596603
v 0.136502 0.155339 -4.696240
v -0.765517 0.155339 -4.618401
v -1.635018 0.155339 -4.366086
v -2.438591 0.155339 -3.948981
v -3.145347 0.155339 -3.383126
v -3.728131 0.155339 -2.690264
v -4.164547 0.155339 -1.897018
v -4.437823 0.155339 -1.033874
v -4.537457 0.155339 -0.133999
v -4.459619 0.155339 0.768022
v -4.207301 0.155339 1.637519
v -3.790200 0.155339 2.441094
v -3.224346 0.155339 3.147848
v -2.531481 0.155339 3.730633
v -1.738235 0.155339 4.167048
v -0.875090 0.155339 4.440325
v 0.024783 0.155339 4.539956
v 0.926800 0.155339 4.462120
v 1.796304 0.155339 4.209802
v 2.599874 0.155339 3.792701
v 3.306633 0.155339 3.226846
v 3.889418 0.155339 2.533982
v 4.325834 0.155339 1.740735
v 4.599106 0.155339 0.877594
v 4.698739 0.155339 -0.022281
v 4.620902 0.155339 -0.924299
v 4.368584 0.155339 -1.793804
v 3.951485 0.155339 -2.597374
v 0.080642 0.155339 -0.078142
v 3.385628 -0.172558 -3.304128
v 3.385628 -0.172558 -3.304128
v 2.692766 -0.172558 -3.886911
v 2.692766 -0.172558 -3.886911
v 2.692766 -0.172558 -3.886911
v 1.899520 -0.172558 -4.323329
v 1.899520 -0.172558 -4.323329
v 1.899520 -0.172558 -4.323329
v 1.036374 -0.172558 -4.596603
v 1.036374 -0.172558 -4.596603
v 1.036374 -0.172558 -4.596603
v 0.136503 -0.172558 -4.696237
v 0.136503 -0.172558 -4.696237
v 0.136502 0.155339 -4.696240
v 0.136503 -0.172558 -4.696237
v -0.765517 -0.172558 -4.618401
v -0.765517 -0.172558 -4.618401
v -0.765517 -0.172558 -4.618401
v -1.635019 -0.172558 -4.366084
v -1.635019 -0.172558 -4.366084
v -1.635019 -0.172558 -4.366084
v -2.438591 -0.172558 -3.948981
v -2.438591 -0.172558 -3.948981
v -2.438591 -0.172558 -3.948981
v -3.145347 -0.172558 -3.383126
v -3.145347 -0.172558 -3.383126
v -3.145347 -0.172558 -3.383126
v -3.728133 -0.172558 -2.690260
v -3.728133 -0.172558 -2.690260
v -3.728133 -0.172558 -2.690260
v -4.164547 -0.172558 -1.897018
v -4.164547 -0.172558 -1.897018
v -4.164547 -0.172558 -1.897018
v -4.437822 -0.172558 -1.033872
v -4.437822 -0.172558 -1.033872
v -4.437822 -0.172558 -1.033872
v -4.537457 -0.172558 -0.133999
v -4.537457 -0.172558 -0.133999
v -4.537457 0.155339 -0.133999
v -4.537457 -0.172558 -0.133999
v -4.459619 -0.172558 0.768020
v -4.459619 -0.172558 0.768020
v -4.459619 -0.172558 0.768020
v -4.207301 -0.172558 1.637523
v -4.207301 -0.172558 1.637523
v -4.207301 -0.172558 1.637523
v -3.790201 -0.172558 2.441094
v -3.790201 -0.172558 2.441094
v -3.790201 -0.172558 2.441094
v -3.224345 -0.172558 3.147850
v -3.224345 -0.172558 3.147850
v -3.224345 -0.172558 3.147850
v -2.531481 -0.172558 3.730634
v -2.531481 -0.172558 3.730634
v -2.531481 -0.172558 3.730634
v -1.738235 -0.172558 4.167050
v -1.738235 -0.172558 4.167050
v -1.738235 -0.172558 4.167050
v -0.875090 -0.172558 4.440323
v -0.875090 -0.172558 4.440323
v -0.875090 -0.172558 4.440323
v 0.024783 -0.172558 4.539956
v 0.024783 -0.172558 4.539956
v 0.024783 0.155339 4.539956
v 0.024783 -0.172558 4.539956
v 0.926801 -0.172558 4.462122
v 0.926801 -0.172558 4.462122
v 0.926801 -0.172558 4.462122
v 1.796304 -0.172558 4.209803
v 1.796304 -0.172558 4.209803
v 1.796304 -0.172558 4.209803
v 2.599874 -0.172558 3.792701
v 2.599874 -0.172558 3.792701
v 2.599874 -0.172558 3.792701
v 3.306631 -0.172558 3.226850
v 3.306631 -0.172558 3.226850
v 3.306631 -0.172558 3.226850
v 3.889417 -0.172558 2.533984
v 3.889417 -0.172558 2.533984
v 3.889417 -0.172558 2.533984
v 4.325835 -0.172558 1.740736
v 4.325835 -0.172558 1.740736
v 4.325835 -0.172558 1.740736
v 4.599106 -0.172558 0.877594
v 4.599106 -0.172558 0.877594
v 4.599106 -0.172558 0.877594
v 4.698739 -0.172558 -0.022281
v 4.698739 -0.172558 -0.022281
v 4.698739 0.155339 -0.022281
v 4.698739 -0.172558 -0.022281
v 4.620902 -0.172558 -0.924300
v 4.620902 -0.172558 -0.924300
v 4.620902 -0.172558 -0.924300
v 4.368584 -0.172558 -1.793804
v 4.368584 -0.172558 -1.793804
v 4.368584 -0.172558 -1.793804
v 3.951482 -0.172558 -2.597371
v 3.951482 -0.172558 -2.597371
v 3.951482 -0.172558 -2.597371
v 3.385628 -0.172558 -3.304128
v 3.385630 0.155339 -3.304129
v 2.692768 0.155339 -3.886911
v 2.692768 0.155339 -3.886911
v 1.899521 0.155339 -4.323329
v 1.899521 0.155339 -4.323329
v 1.036374 0.155339 -4.596603
v 1.036374 0.155339 -4.596603
v 0.136502 0.155339 -4.696240
v 0.136502 0.155339 -4.696240
v -0.765517 0.155339 -4.618401
v -0.765517 0.155339 -4.618401
v -1.635018 0.155339 -4.366086
v -1.635018 0.155339 -4.366086
v -2.438591 0.155339 -3.948981
v -2.438591 0.155339 -3.948981
v -3.145347 0.155339 -3.383126
v -3.145347 0.155339 -3.383126
v -3.728131 0.155339 -2.690264
v -3.728131 0.155339 -2.690264
v -4.164547 0.155339 -1.897018
v -4.164547 0.155339 -1.897018
v -4.437823 0.155339 -1.033874
v -4.437823 0.155339 -1.033874
v -4.537457 0.155339 -0.133999
v -4.537457 0.155339 -0.133999
v -4.459619 0.155339 0.768022
v -4.459619 0.155339 0.768022
v -4.207301 0.155339 1.637519
v -4.207301 0.155339 1.637519
v -3.790200 0.155339 2.441094
v -3.790200 0.155339 2.441094
v -3.224346 0.155339 3.147848
v -3.224346 0.155339 3.147848
v -2.531481 0.155339 3.730633
v -2.531481 0.155339 3.730633
v -1.738235 0.155339 4.167048
v -1.738235 0.155339 4.167048
v -0.875090 0.155339 4.440325
v -0.875090 0.155339 4.440325
v 0.024783 0.155339 4.539956
v 0.024783 0.155339 4.539956
v 0.926800 0.155339 4.462120
v 0.926800 0.155339 4.462120
v 1.796304 0.155339 4.209802
v 1.796304 0.155339 4.209802
v 2.599874 0.155339 3.792701
v 2.599874 0.155339 3.792701
v 3.306633 0.155339 3.226846
v 3.306633 0.155339 3.226846
v 3.889418 0.155339 2.533982
v 3.889418 0.155339 2.533982
v 4.325834 0.155339 1.740735
v 4.325834 0.155339 1.740735
v 4.599106 0.155339 0.877594
v 4.599106 0.155339 0.877594
v 4.698739 0.155339 -0.022281
v 4.698739 0.155339 -0.022281
v 4.620902 0.155339 -0.924299
v 4.620902 0.155339 -0.924299
v 4.368584 0.155339 -1.793804
v 4.368584 0.155339 -1.793804
v 3.951485 0.155339 -2.597374
v 3.951485 0.155339 -2.597374
v 3.385630 0.155339 -3.304129
vn 0.000000 -1.000000 -0.000000
vn 0.643700 -0.000000 -0.765300
vn 0.482000 -0.000000 -0.876200
vn 0.301800 -0.000000 -0.953400
vn 0.110000 0.000000 -0.993900
vn -0.086000 -0.000000 -0.996300
vn -0.278700 0.000000 -0.960400
vn -0.460700 -0.000000 -0.887600
vn -0.625000 0.000000 -0.780600
vn -0.765300 0.000000 -0.643700
vn -0.876200 -0.000000 -0.482000
vn -0.953400 0.000000 -0.301800
vn -0.993900 0.000000 -0.110000
vn -0.996300 0.000000 0.086000
vn -0.960400 0.000000 0.278700
vn -0.887600 0.000000 0.460700
vn -0.780600 0.000000 0.625000
vn -0.643700 0.000000 0.765300
vn -0.482000 0.000000 0.876200
vn -0.301800 0.000000 0.953400
vn -0.110000 -0.000000 0.993900
vn 0.086000 0.000000 0.996300
vn 0.278700 0.000000 0.960400
vn 0.460700 0.000000 0.887600
vn 0.625000 0.000000 0.780600
vn 0.765300 0.000000 0.643700
vn 0.876200 -0.000000 0.482000
vn 0.953400 0.000000 0.301800
vn 0.993900 0.000000 0.110000
vn 0.996300 0.000000 -0.086000
vn 0.960400 0.000000 -0.278700
vn 0.887600 0.000000 -0.460700
vn 0.780600 -0.000000 -0.625000
vn 0.000000 1.000000 -0.000000
s off
f 1//1 3//1 2//1
f 1//1 4//1 3//1
f 1//1 5//1 4//1
f 1//1 6//1 5//1
f 1//1 7//1 6//1
f 1//1 8//1 7//1
f 1//1 9//1 8//1
f 1//1 10//1 9//1
f 1//1 11//1 10//1
f 1//1 12//1 11//1
f 1//1 13//1 12//1
f 1//1 14//1 13//1
f 1//1 15//1 14//1
f 1//1 16//1 15//1
f 1//1 17//1 16//1
f 1//1 18//1 17//1
f 1//1 19//1 18//1
f 1//1 20//1 19//1
f 1//1 21//1 20//1
f 1//1 22//1 21//1
f 1//1 23//1 22//1
f 1//1 24//1 23//1
f 1//1 25//1 24//1
f 1//1 26//1 25//1
f 1//1 27//1 26//1
f 1//1 28//1 27//1
f 1//1 29//1 28//1
f 1//1 30//1 29//1
f 1//1 31//1 30//1
f 1//1 32//1 31//1
f 1//1 33//1 32//1
f 1//1 2//1 33//1
f 67//2 35//2 34//2
f 68//2 69//2 35//2
f 70//3 36//3 35//3
f 71//3 72//3 36//3
f 73//4 37//4 36//4
f 74//4 75//4 37//4
f 76//5 38//5 37//5
f 77//5 78//5 38//5
f 79//6 39//6 80//6
f 81//6 82//6 39//6
f 83//7 40//7 39//7
f 84//7 85//7 40//7
f 86//8 41//8 40//8
f 87//8 88//8 41//8
f 89//9 42//9 41//9
f 90//9 91//9 42//9
f 92//10 43//10 42//10
f 93//10 94//10 43//10
f 95//11 44//11 43//11
f 96//11 97//11 44//11
f 98//12 45//12 44//12
f 99//12 100//12 45//12
f 101//13 46//13 45//13
f 102//13 103//13 46//13
f 104//14 47//14 105//14
f 106//14 107//14 47//14
f 108//15 48//15 47//15
f 109//15 110//15 48//15
f 111//16 49//16 48//16
f 112//16 113//16 49//16
f 114//17 50//17 49//17
f 115//17 116//17 50//17
f 117//18 51//18 50//18
f 118//18 119//18 51//18
f 120//19 52//19 51//19
f 121//19 122//19 52//19
f 123//20 53//20 52//20
f 124//20 125//20 53//20
f 126//21 54//21 53//21
f 127//21 128//21 54//21
f 129//22 55//22 130//22
f 131//22 132//22 55//22
f 133//23 56//23 55//23
f 134//23 135//23 56//23
f 136//24 57//24 56//24
f 137//24 138//24 57//24
f 139//25 58//25 57//25
f 140//25 141//25 58//25
f 142//26 59//26 58//26
f 143//26 144//26 59//26
f 145//27 60//27 59//27
f 146//27 147//27 60//27
f 148//28 61//28 60//28
f 149//28 150//28 61//28
f 151//29 62//29 61//29
f 152//29 153//29 62//29
f 154//30 63//30 155//30
f 156//30 157//30 63//30
f 158//31 64//31 63//31
f 159//31 160//31 64//31
f 161//32 65//32 64//32
f 162//32 163//32 65//32
f 164//33 34//33 65//33
f 165//33 166//33 34//33
f 66//34 167//34 168//34
f 66//34 169//34 170//34
f 66//34 171//34 172//34
f 66//34 173//34 174//34
f 66//34 175//34 176//34
f 66//34 177//34 178//34
f 66//34 179//34 180//34
f 66//34 181//34 182//34
f 66//34 183//34 184//34
f 66//34 185//34 186//34
f 66//34 187//34 188//34
f 66//34 189//34 190//34
f 66//34 191//34 192//34
f 66//34 193//34 194//34
f 66//34 195//34 196//34
f 66//34 197//34 198//34
f 66//34 199//34 200//34
f 66//34 201//34 202//34
f 66//34 203//34 204//34
f 66//34 205//34 206//34
f 66//34 207//34 208//34
f 66//34 209//34 210//34
f 66//34 211//34 212//34
f 66//34 213//34 214//34
f 66//34 215//34 216//34
f 66//34 217//34 218//34
f 66//34 219//34 220//34
f 66//34 221//34 222//34
f 66//34 223//34 224//34
f 66//34 225//34 226//34
f 66//34 227//34 228//34
f 66//34 229//34 230//34
